<?xml version="1.0" encoding="UTF-8"?>
<svg xmlns="http://www.w3.org/2000/svg" xmlns:xlink="http://www.w3.org/1999/xlink" version="1.1" viewBox="0 0 738.9 738.9">
  <defs>
    <style>
      .cls-1 {
        fill: #1d1d1b;
      }

      .cls-2 {
        isolation: isolate;
      }
    </style>
  </defs>
  <!-- Generator: Adobe Illustrator 28.6.0, SVG Export Plug-In . SVG Version: 1.2.0 Build 709)  -->
  <g>
    <g id="Capa_1">
      <g id="Capa_1-2" data-name="Capa_1">
        <g id="outline">
          <image class="cls-2" width="1024" height="1024" transform="translate(-.7 -.7) scale(.7)" xlink:href="../../Downloads/SKY_COLOR.png"/>
        </g>
        <g id="Hotspots">
          <g id="Piso1">
            <polygon class="cls-1" points="221.1 665.2 221.1 596.4 327 554.8 349.5 551.9 369.8 551.9 587.7 603.9 587.7 641.5 560.5 644.4 544.9 654.3 532.2 655.4 517.2 658.9 509.6 665.2 502.1 674.5 363.9 674.5 221.1 665.2"/>
          </g>
          <g id="Piso2">
            <polygon class="cls-1" points="221.1 593 221.1 576.2 228.2 576.2 228.2 562.4 332.8 498.7 353.5 498.7 366.8 498.7 583.6 573.9 573.8 579.1 574.4 584.3 591.8 589.5 587.7 603.9 350.6 565.8 221.1 593"/>
          </g>
          <g id="Piso3">
            <polygon class="cls-1" points="228.2 562.4 225.8 544.4 235.6 535.7 225.8 530.6 328.7 450.7 349 446.7 377.3 453.1 580.7 543.3 583.6 573.9 472.7 534.6 375.3 502.3 344.3 495.8 228.2 562.4"/>
          </g>
          <g id="Piso4">
            <path class="cls-1" d="M226.9,530v-17.3l5.8-7.5-5.8-3.5,104.1-99.5,18-5.8,20.8,6.9,213.9,115.7-8,3.5,8,7.5-5.2,14.4-228-98.5-21.8,5.5-87.9,70s-18.9,12.4-13.9,8.7h0Z"/>
          </g>
          <g id="Piso5">
            <path class="cls-1" d="M225.2,501.1l-.7-35.3,5.8-7.4,12.9-22.7,89.5-85.4,18-5.8,20.8,6.9,179.3,115,24.9,17.3,9.7,4.6v30l-233.2-124.5-21.8,5.5-85.9,86.7s-24,18.8-19.1,15.1h-.1Z"/>
          </g>
          <g id="Piso6">
            <path class="cls-1" d="M224.9,468.2l2.7-30.1,6.4-9.8,27.1-28.9,72.8-101.2,19.6-3.5,16.2,7.5,148.6,113.1,49.7,36.1,13.9,10.4,2.9,28.4-233.2-135-21.8,5.5-85.9,86.8s-23.9,24.7-19,20.8h-.1Z"/>
          </g>
          <g id="Piso7">
            <path class="cls-1" d="M227.5,438l.4-48,6.4-9.8,26.2-35.8,73.8-94.2,19.6-3.5,16.2,7.5,148.6,113.1,49.7,36.1,13.9,10.4,2.5,50.4-232.8-156.9-21.8,5.5-76.1,94.2s-31.6,35.1-26.5,31.3h0v-.2Z"/>
          </g>
          <g id="Piso8">
            <path class="cls-1" d="M227.5,392.6v-44.8l22.7-45.4,37.5-68.8,49.2-87.9,10.9-6,13.9,5.4,128.6,140.4,51.1,54.8,43.1,46.2v44.8l-222.1-184.7-28,3.5-64,75.7s-47.8,70.5-42.8,66.8h-.1Z"/>
          </g>
          <g id="Piso9">
            <path class="cls-1" d="M227.5,347.8l.9-21.3,28.6-64.8,30.6-72.8,49.2-87.9,10.9-6,13.9,5.4,127.1,149.7,50.9,65.3,45,57.9-.2,13.3-227.6-244.2-21.8,5.5-66.4,121.4s-46,82.3-41,78.6h-.2Z"/>
          </g>
          <g id="Piso10">
            <path class="cls-1" d="M227,314.3l.9-21.3,28.6-64.8,30.6-72.8,42.8-96,26.6-2.9,13.3,6.9,118.5,153.2,50.9,65.3,45,57.9-.5,25.4L356.3,108.9l-21.8,5.5-66.4,121.4s-46,82.3-41,78.6h-.1Z"/>
          </g>
        </g>
      </g>
    </g>
  </g>
</svg>