<?xml version="1.0" encoding="UTF-8"?>
<svg xmlns="http://www.w3.org/2000/svg" viewBox="0 0 749.18 846.68">
  <defs>
    <style>
      .cls-1, .cls-2 {
        fill: none;
      }

      .cls-2 {
        stroke: #ec6568;
        stroke-miterlimit: 10;
      }
    </style>
  </defs>
  <g id="hotspots">
    <g>
      <path d="M471.64,794.71c-7.97-.59-15.93-1.18-23.9-1.76-.02.57-.05,1.14-.07,1.72h24.06c.39.48.76,1.36,1.18,1.39,7.62.5,15.26.89,22.89,1.31.01-.23.02-.45.03-.68-8.05-.67-16.1-1.33-24.19-1.97ZM567.3,830.65c-13.44.99-26.87,1.97-40.31,2.96,9.64.15,19.23-.42,28.8-1.22,3.84-.32,7.64-1.15,11.49-1.74h25.61v-1.21c-4.27,0-8.53-.16-12.78.04-4.28.2-8.54.76-12.81,1.16ZM402.47,842.55c-13.62.5-27.25,1.73-40.84,1.35-21.75-.62-43.47-2.3-65.21-3.55-6.62-.38-13.24-.82-19.86-1.23,15.52,1.91,31.11,2.79,46.66,4.14,25.23,2.19,50.45,2.31,75.69.59,1.19-.08,2.33-.87,3.53-1.3,1.97.19,3.95.63,5.91.52,11.61-.66,23.22-1.38,34.83-2.2,22.87-1.62,45.73-3.31,68.59-4.97-.02-.3-.04-.59-.06-.89-36.41,2.52-72.82,5.03-109.23,7.55ZM231.14,836.18c.02-.28.04-.56.06-.84-50.13-3.91-100.25-7.82-150.38-11.73l-.09,1.18c50.14,3.8,100.27,7.6,150.41,11.4ZM663.49,824.22c26.27-1.81,52.37-3.6,78.47-5.4-6.33-.42-12.6.07-18.87.46-17.26,1.09-34.52,2.06-51.78,3.23-7.39.5-7.37.67-7.81-7.14v8.84ZM656.49,824.93c-.06-.26-.11-.52-.17-.78-19.44,1.31-38.89,2.63-58.33,3.94l.09,1.26c19.47-1.47,38.94-2.95,58.41-4.42ZM236.52,835.96l.18.69c10.67.84,21.34,1.68,32.01,2.51.02-.31.04-.62.06-.92-10.75-.76-21.5-1.52-32.25-2.28ZM186.49,823.66c.55-.02,1-.05,1-.05v-17.58s-.45.02-1,.02v17.6ZM5.58,817.87c0,.28-.01.56-.02.85,10.89.8,21.79,1.59,32.68,2.39.01-.17.02-.34.03-.51-10.9-.91-21.8-1.82-32.69-2.72ZM612.33,806.17l-.15.45c3.29.4,6.57.93,9.87,1.15,3.01.19,6.04.04,9.06.04,0-.13,0-.26,0-.38-6.26-.42-12.52-.84-18.78-1.25ZM212.05,798.69c.02-.3.03-.6.05-.89-6.23.56-12.46,1.13-18.69,1.69.02.27.05.54.07.81,6.19-.54,12.38-1.07,18.57-1.61Z"/>
      <path d="M109.51,633.74c-4.38-1.3-6.36-3.93-6.26-8.79.24-11.65-.41-23.33.14-34.96.2-4.3,2.76-8.49,4.48-13.42-5.59-1.85-4.91-7.46-4.85-13.03.12-9.82-.52-19.68.1-29.46.31-4.85,2.71-9.57,4.41-15.13-4.46-1.78-4.54-6.71-4.48-11.91.12-10.49-.44-21,.12-31.47.22-4.21,2.63-8.29,4.34-13.3-6.06-2.53-4.57-8.9-4.61-14.78-.06-9.33-.72-18.69,0-27.96.38-4.97,3.08-9.77,4.87-15.04-4.35-1.74-5.29-5.84-5.06-11.27.45-10.64-.34-21.33.26-31.95.26-4.52,2.72-8.92,4.41-14.07-5.19-1.45-4.67-6.69-4.65-11.74.03-10.66-.4-21.34.22-31.96.25-4.36,2.72-8.59,4.33-13.32-4.44-1.83-4.69-6.1-4.5-11.13.38-10.31-.34-20.67.29-30.96.3-4.89,2.66-9.66,4.29-15.21-5.6-1.66-4.64-7.25-4.65-12.34-.04-10.49-.33-21.01.3-31.46.27-4.43,2.6-8.74,4.2-13.76-4.94-1.85-4.28-6.77-4.22-11.68.14-10.49.37-21-.13-31.47-.64-13.62,5.96-22.77,17.41-28.32,26.34-12.77,52.9-25.08,79.47-37.36,41.06-18.98,82.2-37.8,123.33-56.65,30.11-13.81,59.6-13.21,89.14,2.5,41.12,21.87,83.08,42.18,123.87,64.62,46.48,25.56,92.09,52.71,138.05,79.22,7.63,4.4,15.1,9.1,22.69,13.58,6.25,3.68,9.62,8.71,9.33,16.32-.34,8.81-.13,17.65.07,26.47.12,5.2-.45,10-5.41,13.97,6.55,4.93,6.12,11.85,5.96,18.73-.15,6.33-.19,12.66-.22,18.98-.03,5.38.42,10.9-5.91,14.29,8.7,7.8,6.58,17.54,6.21,26.67-.36,8.98,2.95,18.82-5.29,26.96,8.6,7.07,5.55,16.96,5.42,25.94-.13,8.94,3.17,18.9-5.75,26.7,9.19,7.07,6.12,17.21,5.8,26.35-.32,9.08,3.05,19.26-6.02,27.13,8.91,7.35,6.43,17.53,6.11,26.9-.32,9.26,3.2,19.54-5.92,27.44,6.47,4.66,6.5,11.26,6.23,18.09-.26,6.65-.24,13.32-.13,19.98.1,5.96.42,11.88-6.72,15.27,6.49,4.74,7.23,10.78,6.89,17.42-.39,7.81-.21,15.65-.4,23.47-.12,5.15.04,10.51-6.71,13.36,7.84,5.43,7.23,12.86,7.04,20.24-.19,7.49-.28,14.99-.24,22.48.03,4.98-1.05,9.27-6.71,12.14,7.37,4.21,7.35,10.78,7.12,17.59-.25,7.45-.06,14.91-.06,23.11,5.73,1.41,12.28,2.99,18.81,4.65,6.12,1.55,12.25,3.08,18.31,4.83,3.82,1.1,5.14,3.8,4.33,9.19-1.95,12.82-1.96,25.82-.08,38.64.99,6.76-.41,9.44-5.43,9.46-8.13.03-16.26.06-24.39.09-1.97,0-3.93,0-6.56,0v49.35c-.51.04-1.02.08-1.53.12-.11-1.6-.31-3.21-.31-4.81-.01-13.66-.12-27.32.1-40.97.07-4.01-1.12-5.63-5.18-5.8-4.2-.17-8.36-1.09-13.08-1.76v51.89c-.3,0-1.31,0-1.61,0,0-15.57-.22-31.15.12-46.72.12-5.4-1.26-7.64-6.7-7.86-5.42-.22-10.82-1.45-16.19-2.49-3.36-.65-5.15.35-5.12,4.03.14,16.47.23,32.94.59,49.41.02,1.1,2.06,2.85,3.37,3.1,3.87.75,7.85.91,11.76,1.85-5.45-.26-10.89-.53-16.51-.8,0-7.42-.03-15.02,0-22.62.06-10.3.16-20.59.27-30.89.03-2.75-.16-4.91-3.67-5.43-19.5-2.85-38.96-5.9-58.44-8.87-.46-.07-.94.08-2.04.19,0,2.54,0,5.07,0,7.59,0,15.1.03,30.2.02,45.3,0,8.21-.04,8.21,7.8,9.18h-7.67v19.77h-.61c-.38-7.09-1.07-14.2-1.08-21.3,0-18.69.29-37.37.46-56.06.03-2.83.1-5.24-3.79-5.81-20.15-2.91-40.26-6.11-60.39-9.18-.29-.04-.62.16-1.59.42v89.89c-.42,0-.83.01-1.25.02,0-5.87-.25-11.75.08-17.59.25-4.5-1.02-6.84-6.04-6.12,3.31-.07,5.98-.09,5.93-4.7-.22-19.21-.1-38.43-.13-57.64,0-.64-.23-1.28-.46-2.43-28.43-4.2-56.88-8.4-86.13-12.72v94.65c-.46,0-.91,0-1.37.01,0-5.48-.01-10.95,0-16.43q.02-7.2-7.22-7.89c2.25-.52,5.46-.34,6.33-1.68,1.17-1.8.66-4.78.67-7.26.03-18.79-.06-37.58.08-56.37.03-3.48-.9-4.92-4.53-5.43-42.24-5.95-84.54-9.45-127.16-3.2-7.78,1.14-15.63,1.73-23.46,2.48-3.95.38-4.06,2.56-4.05,5.6.08,20.29.19,40.58,0,60.86-.04,4.4,1.71,4.86,5.37,4.51,8.89-.85,17.82-1.37,26.78-1.29-9.25.77-18.49,1.69-27.75,2.22-3.4.2-4.72,1.32-4.64,4.76.17,7.4.05,14.81-1.04,22.27v-26.42c-17.31,1.29-33.73,2.51-50.15,3.73-.02-.34-.05-.68-.07-1.02,14.65-1.08,29.29-2.37,43.96-3.11,4.79-.24,6.14-1.86,6.09-6.53-.19-18.97,0-37.94.04-56.92,0-2.31,0-4.61,0-7.9-6.39.8-12.23,1.46-18.05,2.26-23.7,3.26-47.38,6.62-71.1,9.78-3.03.4-4.29,1.25-4.26,4.54.14,18.97.06,37.94.1,56.92,0,1.93.33,3.85.5,5.72-10.99.7-21.68,1.39-32.36,2.07-.02-.28-.04-.56-.06-.83,8.81-.67,17.62-1.43,26.44-1.94,2.67-.15,3.99-.93,3.98-3.75-.04-19.8-.01-39.61-.03-59.41,0-.63-.27-1.25-.58-2.59-26.5,3.73-52.89,7.44-79.45,11.18v60.38c2.49.18,4.67.33,7.13.5q-7.78,1.11-9.13,13.16c0-12.06,0-24.11,0-36.17s0-24.53,0-37.35c-7.51,1.01-14.45,1.96-21.41,2.89-15.33,2.03-30.64,4.19-46,5.97-3.83.44-4.82,1.85-4.77,5.33.22,15.49.21,30.97.27,46.46,0,1.89,0,3.78,0,5.66-.53,0,1.41,0,.9,0v-55.94c-7,0-13.36-.05-19.72,0s-11.99-5.32-11.87-11.97c.24-13.31.36-26.64.01-39.95-.14-5.22,1.86-7.76,6.61-8.8,14.29-3.14,28.57-6.31,42.86-9.45,17.05-3.75,34.1-7.48,51.89-11.38,0-7.62.29-15.38-.09-23.12-.31-6.28.12-11.97,5.49-16.22.5-.4.47-1.48.68-2.24.98-.15,2.06-.07,2.93-.47,23.79-10.86,49.4-15.7,74.54-21.76,42.2-10.17,84.77-18.85,127.06-28.64,32.62-7.55,66.53-7.57,99.11.18,35.44,8.43,70.9,16.73,106.33,25.19,36.2,8.64,72.44,17.15,108.55,26.18,22.56,5.64,44.92,12.06,67.31,18.36,3.7,1.04,5.88-.47,7.54-3.01,1.91-2.92-.04-5.27-2.44-6.61-3.74-2.09-7.6-4.33-11.7-5.39-35.4-9.14-70.78-18.36-106.32-26.93-52.66-12.7-105.5-24.68-158.16-37.43-20.28-4.91-40.56-8.49-61.52-8.77-23.94-.32-46.82,5.62-69.81,10.72-48.67,10.81-97.23,22.12-145.76,33.54-11.75,2.76-23.85,4.89-34.29,11.68-6.69,4.35-7.27,6.85-3.21,13.31ZM105.67,159.36c7.91-4.45,15.52-9.54,23.76-13.24,34.91-15.66,69.96-31.03,105.05-46.28,32.18-13.99,64.24-28.33,96.82-41.33,24.72-9.86,49.92-8.78,74.26,2.44,14.34,6.62,28.47,13.7,42.63,20.73,41.13,20.42,82.4,40.57,123.28,61.48,44.35,22.69,88.32,46.12,132.46,69.22,0-7.8-.51-16.33.15-24.76.64-8.16-2.74-13.03-9.51-16.94-44.64-25.85-88.71-52.74-133.87-77.63-50.85-28.03-102.65-54.33-154.05-81.37-25.31-13.32-51.47-13.5-77.13-2.39-34.19,14.8-67.74,31.11-101.61,46.66-34.63,15.9-69.38,31.54-103.93,47.6-8.82,4.1-16.91,10.44-18.01,20.6-1.29,11.95-.3,24.15-.3,35.22ZM743.86,731.71c3.62-4.93,2.39-7.88-4.23-9.39-17.19-3.9-34.4-7.78-51.67-11.28-30.31-6.14-60.69-11.94-91.03-17.96-28.05-5.56-56.06-11.32-84.13-16.81-30.83-6.03-61.73-11.66-92.54-17.81-33.62-6.7-67.33-8.36-101.18-2.36-46.17,8.18-92.33,16.47-138.44,25-44.32,8.2-88.58,16.74-132.86,25.19-13.06,2.49-26.09,5.18-39.13,7.8-3.02.61-5.13,2.57-4.35,5.57.52,1.99,2.39,4.34,4.25,5.11,3.08,1.28,6.63,1.42,9.98,2.04-.03.23-.07.46-.1.7-4.53-.44-9.07-.89-13.95-1.37v18.9c1.07,0,1.74.09,2.37-.01,17.57-2.76,35.14-5.55,52.71-8.32,43.05-6.78,86.07-13.73,129.15-20.29,34.86-5.3,69.81-10.06,104.7-15.19,26.37-3.88,52.77-7.03,79.53-6.25,27.23.79,53.88,5.87,80.65,10.12,50.55,8.03,101.1,16.03,151.64,24.11,28.73,4.59,57.46,9.23,86.17,14.02,18.18,3.03,36.3,6.38,54.45,9.59,1.42-9.1.58-19.21-1.99-21.13ZM695.94,657.31c-2.04-1.72-3.01-3.09-4.3-3.53-6.44-2.21-12.87-4.55-19.47-6.18-49.53-12.2-99.08-24.31-148.65-36.31-34.56-8.36-69.21-16.37-103.75-24.79-25.41-6.19-51.13-10.14-77.12-6.22-22.76,3.43-45.33,8.32-67.8,13.4-41.48,9.38-82.86,19.22-124.21,29.2-10.15,2.45-20.04,6.06-29.94,9.46-2.24.77-3.9,3.95-6.02,4.19-5.11.56-7.99,3.9-8.27,7.84-.7,9.7-.23,19.49-.23,29.58,1.27-.21,2.23-.32,3.16-.52,31.4-6.53,62.75-13.33,94.21-19.53,35.71-7.04,71.57-13.34,107.28-20.37,28.32-5.57,56.75-7.65,85.33-3.27,17.38,2.66,34.57,6.59,51.84,9.97,27.74,5.42,55.51,10.65,83.19,16.34,24.09,4.95,48.09,10.34,72.1,15.69,30.52,6.8,61,13.75,91.5,20.64,3.51.79,7.02,1.57,10.74,2.41,0-10.45.27-20.4-.11-30.33-.21-5.37-5.26-8.5-9.48-7.67ZM105.4,218.51c7.71-7.41,16.69-12,26.1-15.86,20.01-8.19,40.04-16.33,60.09-24.42,45.95-18.52,91.75-37.42,137.94-55.33,25.41-9.85,51.24-8.8,76.38,2.13,15.25,6.63,30.36,13.57,45.51,20.43,31.52,14.28,63.12,28.37,94.5,42.95,46.92,21.81,93.7,43.91,140.46,66.05,6.16,2.91,11.87,6.77,18.21,10.43,0-9.64.21-18.95-.08-28.24-.17-5.47-4.41-8.87-8.05-8.41-1.33-1.71-2.01-3.23-3.18-3.98-7-4.49-13.87-9.28-21.24-13.1-48.59-25.17-97.17-50.36-145.99-75.07-37.55-19-75.64-36.95-113.14-56.05-29.42-14.98-58.83-16.15-88.99-3.04-29.89,13-59.88,25.78-89.72,38.92-33.49,14.75-67.04,29.4-100.16,44.96-8.88,4.17-16.51,11.2-24.24,17.49-2.3,1.87-4.05,5.68-4.19,8.69-.5,10.46-.2,20.95-.2,31.44ZM704.78,317.82c0-7.62-.24-14.79.07-21.93.32-7.29-.86-12.73-8.5-16.62-12.81-6.53-24.4-15.54-37.35-21.73-44.27-21.16-88.83-41.73-133.43-62.19-38.4-17.62-77.14-34.49-115.48-52.24-28.05-12.99-56.13-13.96-84.72-2.6-15.91,6.32-31.75,12.8-47.58,19.3-44.47,18.26-89,36.38-133.32,55-9.59,4.03-18.44,9.85-27.49,15.08-1.4.81-2.04,2.95-3.45,5.1-3.52-.14-7.88,4.52-8.01,10.5-.16,7.32-.04,14.66-.04,21.98,0,3.01,0,6.03,0,8.13,6.79-4.19,13.02-9.09,20.06-12.15,16.16-7.04,32.62-13.39,49.11-19.63,19.45-7.36,39.08-14.25,58.59-21.45,32.44-11.96,64.67-24.53,97.34-35.84,24.01-8.31,48.52-7.7,72.49,1.12,13.42,4.94,26.67,10.34,39.88,15.84,31.64,13.16,63.22,26.44,94.78,39.78,21.61,9.13,43.13,18.47,64.7,27.69,14.99,6.41,30.01,12.77,45.01,19.16,19.35,8.24,39.29,15.27,57.34,27.67ZM105.46,392.49c9.08-9.5,19.63-13.8,30.62-17.36,18.03-5.83,35.97-11.96,54.04-17.69,45.64-14.47,91.25-29.03,137.02-43.08,25.49-7.83,51.23-7.63,76.67.74,17.2,5.66,34.27,11.74,51.41,17.62,29.27,10.04,58.58,19.94,87.79,30.15,36.42,12.73,72.82,25.54,109.1,38.66,17.73,6.41,36.12,11.36,52.65,22.38,0-10.28.41-20.21-.28-30.07-.18-2.6-3.7-5.04-5.88-7.38-.55-.59-1.96-.27-2.77-.74-8.42-4.82-16.4-10.66-25.27-14.41-25.57-10.81-51.4-21.03-77.3-31.02-62.83-24.25-125.69-48.41-188.68-72.23-22.53-8.52-45.91-10.17-69.15-3.24-20.03,5.97-39.76,13-59.51,19.9-42.23,14.77-84.38,29.76-126.56,44.66-14.03,4.95-27.56,10.91-38.61,21.17-2.39,2.22-4.87,5.68-5.05,8.71-.61,10.6-.24,21.26-.24,33.22ZM105.43,448.27c5.38-3.25,9.96-7.21,15.27-9.02,21.71-7.4,43.54-14.54,65.53-21.05,42.71-12.64,85.65-24.52,128.34-37.23,31.45-9.36,62.76-11.05,94.33-1.03,13.15,4.17,26.32,8.29,39.49,12.4,27.63,8.62,55.31,17.08,82.89,25.87,38.82,12.37,77.66,24.72,116.31,37.61,19.27,6.42,39.45,10.67,57.49,22.31,0-10.4.33-20.34-.23-30.24-.14-2.47-2.72-5.38-4.96-7.04-4.1-3.05-8.59-5.7-13.24-7.84-9.81-4.51-19.64-9.1-29.8-12.73-41.95-14.98-84.02-29.63-126.05-44.37-42.03-14.73-84.02-29.58-126.14-44.07-26.55-9.14-53.37-8.57-80.02-.3-24.91,7.73-49.72,15.78-74.52,23.86-35.73,11.63-71.48,23.2-107.06,35.28-8.75,2.97-16.91,7.7-25.24,11.85-1.24.62-1.86,2.48-3.28,4.49-3.57-.19-8.79,3.48-8.98,8.48-.41,10.89-.13,21.8-.13,32.76ZM704.86,371.43c0-10.46.48-19.96-.28-29.36-.24-2.95-3.72-5.7-5.89-8.39-.52-.64-1.86-.53-2.66-1.03-7.86-4.88-15.26-10.74-23.59-14.57-25.22-11.6-50.66-22.72-76.25-33.48-63.78-26.82-127.6-53.55-191.57-79.88-25.55-10.52-51.75-9.96-77.64-.83-17.86,6.29-35.47,13.28-53.18,19.98-40.92,15.48-81.91,30.78-122.71,46.59-10.5,4.07-20.59,9.36-30.47,14.83-10.03,5.55-17.41,12.97-15.38,26.21.95,6.18.11,12.63.14,18.96,0,1.03.28,2.06.23,1.72,7.76-4.23,15.2-9.44,23.43-12.56,25.35-9.6,50.96-18.52,76.55-27.47,35.31-12.35,70.94-23.85,105.99-36.9,36.57-13.61,72.3-14.07,108.31,1.59,16.45,7.16,33.42,13.14,50.2,19.54,33.58,12.8,67.26,25.33,100.77,38.31,31.8,12.31,63.47,24.94,95.11,37.65,13.06,5.24,26.78,9.19,38.9,19.09ZM114.48,576.35c1.98,1.77,2.81,2.51,4.17,3.73-7.9-1.91-13,2.23-12.97,9.57.03,7.33,0,14.65-.02,21.98,0,3.04,0,6.08,0,8.03,9.39-3.57,18.13-7.75,27.32-10.21,19.11-5.1,38.43-9.41,57.72-13.8,38.92-8.85,77.93-17.3,116.81-26.34,31.18-7.25,62.51-10,94.08-3.76,19.39,3.84,38.56,8.83,57.82,13.35,35.95,8.44,71.95,16.72,107.83,25.44,45.97,11.18,92.34,20.86,137.71,35.65,0-9.52.28-19.65-.21-29.75-.11-2.35-2.34-5.25-4.42-6.73-3.64-2.58-7.74-4.79-11.97-6.19-14.98-4.96-29.96-10.04-45.19-14.12-41.59-11.17-83.32-21.84-124.99-32.73-35.71-9.33-71.46-18.55-107.12-28.08-30.25-8.09-60.46-8.32-90.82-.84-23.25,5.72-46.57,11.12-69.8,16.93-36.46,9.13-72.91,18.3-109.25,27.89-8.77,2.31-17.09,6.33-26.73,9.98ZM704.96,532.66c0-11.05.45-21.18-.3-31.23-.2-2.65-4.01-5.09-6.33-7.46-.57-.58-1.86-.36-2.69-.78-8.54-4.26-16.68-9.7-25.63-12.69-47.94-15.96-96.06-31.41-144.18-46.84-39.25-12.58-78.6-24.84-117.88-37.33-23.98-7.63-48.37-9.88-72.81-3.55-28.44,7.36-56.65,15.64-84.84,23.91-35.1,10.3-70.16,20.73-105.06,31.68-10.48,3.29-20.37,8.47-31.41,13.17,2.12,1.78,2.92,2.44,4.01,3.36-7.18-1.32-12.4,2.95-12.43,9.95-.04,8.16.12,16.32.18,24.47.02,2.01,0,4.02,0,5.15,7.95-3.75,15.12-8.15,22.9-10.59,19.51-6.1,39.22-11.57,58.98-16.83,43.05-11.45,86.2-22.49,129.25-33.94,31.59-8.4,63.07-9.15,94.62-.06,42.65,12.29,85.31,24.52,127.95,36.84,39.78,11.49,79.59,22.89,119.28,34.7,15.53,4.62,31.83,7.46,46.4,18.05ZM695.25,548.43c-1.34-1.67-2.07-3.47-3.33-4.01-7.64-3.25-15.25-6.73-23.16-9.17-23.2-7.13-46.54-13.84-69.83-20.66-24.4-7.14-48.81-14.25-73.22-21.33-38.96-11.3-77.94-22.5-116.88-33.87-22.08-6.45-44.6-8.88-67.14-4.44-21.93,4.32-43.54,10.34-65.22,15.89-26.26,6.72-52.5,13.56-78.66,20.66-20.06,5.45-40.08,11.08-59.92,17.26-7.89,2.46-15.24,6.61-22.84,9.99.16.51.32,1.02.49,1.53,1.72.79,3.44,1.57,5.16,2.36-1.25.18-2.35-.09-3.47-.32-5.35-1.14-10.95,1.9-11.22,7.32-.57,11.19-.17,22.42-.17,34.42,8.22-7.21,17.27-10.68,26.85-13.18,18.02-4.71,35.92-9.87,54-14.32,33.4-8.22,66.85-16.29,100.38-23.99,19.44-4.46,38.95-8.93,58.65-11.88,24.37-3.65,48.35.26,72.06,6.56,30.37,8.08,60.95,15.37,91.36,23.32,45.04,11.77,90.09,23.53,134.97,35.88,20.39,5.61,41.66,8.79,60.88,19.97,0-10.4.27-20.51-.11-30.59-.2-5.41-5.33-8.49-9.6-7.4ZM746.71,721.58c0-1.57,0-3.05,0-4.54q-.05-10.12-9.84-12.34c-23.35-5.33-46.67-10.83-70.06-15.97-46.42-10.21-92.83-20.44-139.33-30.24-38.55-8.13-77.27-15.4-115.81-23.55-26.87-5.68-53.86-7.01-80.87-2.58-28.86,4.73-57.57,10.41-86.28,16-31.63,6.15-63.23,12.5-94.78,19.08-32.73,6.83-65.38,13.98-98.05,21.11-14.14,3.08-28.23,6.35-42.29,9.77-1.7.42-4.05,2.19-4.32,3.65-.64,3.5-.21,7.2-.21,10.96,1.57,0,2.57.16,3.49-.02,16.13-3.28,32.23-6.7,48.37-9.9,43.56-8.64,87.09-17.41,130.72-25.71,34.78-6.61,69.61-13.11,104.57-18.68,22.63-3.61,45.48-6.38,68.34-7.85,28.12-1.8,55.58,4.89,83.06,9.78,30.61,5.45,61.08,11.72,91.58,17.78,40.63,8.07,81.25,16.19,121.84,24.46,29.8,6.07,59.54,12.43,89.86,18.78ZM442.45,714.09c.11,5.64,3.8,6.51,8.31,6.99,8.1.87,16.17,2.06,24.23,3.26,65.62,9.76,131.2,19.78,196.87,29.21,21.36,3.07,42.93,4.77,64.44,6.72,3.08.28,6.35-1.51,9.54-2.34-1.34-4.75-5.8-4-9.01-4.55-50.51-8.54-101.03-17.02-151.6-25.21-55.5-8.99-111.07-17.54-166.56-26.54-31.26-5.07-62.61-6.48-93.99-2.33-37.93,5.02-75.78,10.57-113.62,16.27-50.67,7.63-101.29,15.57-151.92,23.48-16.26,2.54-32.48,5.35-48.7,8.14-2.24.39-5.52.03-5.14,3.9.4,4,3.78,2.72,5.87,2.66,9.46-.25,18.97-.3,28.34-1.44,23.56-2.88,47.05-6.28,70.57-9.53,28.39-3.92,56.77-7.96,85.17-11.82,27.04-3.68,54.09-7.26,81.16-10.69,3.57-.45,5.55-1.66,5.75-5.31.01-.2.33-.37.44-.49.29,1.37.59,2.76.96,4.5,52.82-8.23,105.34-7.24,157.97.42.39-2.25.66-3.78.93-5.31ZM363.54,501.08c-6.95.58-14.04.49-20.84,1.87-22.81,4.62-45.61,9.35-68.23,14.81-44.15,10.64-88.2,21.68-132.22,32.85-8.51,2.16-16.84,5.27-24.9,8.77-3.6,1.56-6.7,4.86-9.25,8-.98,1.2-.46,4.59.61,6.13.66.96,3.72.75,5.53.32,2.21-.53,4.16-2.09,6.36-2.78,18.09-5.64,36.01-11.96,54.36-16.58,46.61-11.75,93.45-22.6,140.15-34.04,29.74-7.28,59.62-9.11,89.47-1.76,40.38,9.94,80.58,20.61,120.84,31.03,36.87,9.55,73.8,18.87,110.54,28.92,19.7,5.39,39.1,11.91,58.5,18.33,3.88,1.29,6.35,1.08,8.38-2.29,2.28-3.77-.11-6.26-2.98-7.72-5.16-2.62-10.44-5.28-15.98-6.84-28.98-8.16-58-16.19-87.11-23.87-56.77-14.96-113.6-29.65-170.41-44.48-20.61-5.38-41.14-11.17-62.81-10.68ZM105.82,454.3c1.39,2.26,1.98,4.2,3.28,5.02.99.62,3.02.13,4.35-.42,10.88-4.54,21.38-10.28,32.6-13.66,55.25-16.64,110.7-32.63,166.05-48.92,16.64-4.9,33.36-8.98,50.9-9.08,20.1-.11,39.06,4.66,58.06,10.84,45.7,14.88,91.69,28.86,137.53,43.31,25.7,8.1,51.46,16,76.95,24.71,19.95,6.82,39.57,14.65,59.23,22.29,3.17,1.23,5.57,2.06,7.67-1.27,2.15-3.4,1.11-6.24-2-8.09-4.84-2.87-9.66-6.11-14.92-7.87-41.01-13.7-82.05-27.3-123.22-40.51-51.62-16.56-103.35-32.78-155.07-49-23.3-7.31-47.1-9.32-70.95-3.66-19.72,4.68-39.16,10.53-58.64,16.18-43.92,12.74-87.86,25.41-131.62,38.71-11.35,3.45-22.14,8.86-32.93,13.92-2.84,1.33-4.7,4.75-7.29,7.51ZM703.76,537.17c-1.13-1.24-2.49-3.88-4.62-4.87-7.79-3.63-15.63-7.4-23.82-9.89-34.84-10.57-69.78-20.81-104.75-30.95-55.57-16.12-111.12-32.3-166.82-47.97-28.6-8.05-57.19-5.96-85.74,1.75-50.08,13.53-100.35,26.33-150.45,39.78-15.4,4.13-30.64,8.99-45.66,14.32-4.94,1.75-9.3,5.71-13.26,9.37-1.26,1.16-1.21,5.02-.3,6.96,1.41,3.02,4.02,1.35,6.42.32,9.91-4.26,19.6-9.4,29.92-12.24,56.75-15.61,113.67-30.57,170.5-45.88,25.89-6.98,52.07-10.05,78.5-4.32,16.87,3.66,33.46,8.68,50.08,13.43,62.67,17.92,125.34,35.83,187.91,54.09,21.52,6.28,43.4,11.59,63.69,21.59,3.94,1.94,8.22-.46,8.41-5.49ZM364.35,322.16c10.33,1.55,20.93,2.13,30.93,4.88,16.16,4.44,32,10.12,47.87,15.59,52.81,18.22,105.7,36.24,158.31,55.01,31.59,11.27,64.16,20.18,93.72,36.66,2.76,1.54,4.96,1.24,7.03-1.22,2.27-2.7,1.44-5.37-.78-7-4.38-3.21-8.87-6.63-13.86-8.55-21.4-8.24-42.95-16.1-64.54-23.84-35.06-12.58-70.14-25.09-105.29-37.38-36.73-12.84-73.54-25.47-110.35-38.05-24.54-8.39-49.51-10.24-74.64-3.13-17.11,4.84-34.02,10.4-50.96,15.81-47.52,15.19-95.07,30.31-142.48,45.85-8.61,2.82-16.81,7.1-24.79,11.47-3.11,1.71-5.47,5.27-7.37,8.47-.71,1.19.49,4.08,1.64,5.55.52.66,3.23.16,4.61-.51,2.98-1.43,5.58-3.77,8.64-4.94,21.58-8.21,43.01-16.9,64.92-24.14,41.99-13.86,84.28-26.83,126.42-40.22,16.55-5.26,33.26-9.59,50.97-10.33ZM360.58,246.44c-3.5.46-10.48,1.02-17.3,2.38-6.99,1.4-13.96,3.21-20.71,5.51-30.06,10.24-60.06,20.66-90.05,31.13-33.29,11.63-66.6,23.2-99.75,35.24-6.78,2.46-13.04,6.55-19.17,10.47-2.67,1.7-4.94,4.59-6.35,7.45-.75,1.52.47,4.27,1.41,6.15.21.42,3.18-.09,4.58-.78,11.01-5.43,21.6-11.93,32.99-16.33,22.33-8.62,45.08-16.18,67.7-24.04,37.08-12.87,74.16-25.73,111.3-38.39,25.72-8.77,51.74-9.44,77.4-.21,30.04,10.8,59.82,22.35,89.66,33.72,31.09,11.84,62.23,23.58,93.14,35.87,37.06,14.74,75.24,26.86,110.14,46.68,2.36,1.34,4.27,1.43,6.11-.84,1.97-2.44,2.45-5.08-.02-7.08-3.96-3.21-7.96-6.77-12.55-8.73-16.06-6.85-32.37-13.1-48.6-19.53-36.8-14.58-73.54-29.31-110.44-43.64-39.53-15.36-79.23-30.28-118.82-45.49-15.21-5.85-30.85-9.32-50.68-9.54ZM365.61,194.3c8.37,1.25,17.11,1.37,25.02,3.99,18.44,6.11,36.67,12.96,54.64,20.34,40.93,16.81,81.68,34.06,122.44,51.26,29.58,12.48,59.2,24.88,88.56,37.88,13.35,5.91,26.12,13.14,39.07,19.93,2.68,1.4,4.84,2.24,6.74-.88,1.92-3.15,1.14-5.99-1.59-7.91-4.61-3.23-9.26-6.57-14.33-8.95-14.75-6.92-29.63-13.57-44.61-19.98-48.33-20.67-96.7-41.28-145.13-61.73-28.5-12.03-57.19-23.62-85.72-35.6-30.28-12.71-60.44-12.18-90.91-.52-33.56,12.85-67.33,25.12-100.96,37.79-28.02,10.56-56.04,21.12-83.87,32.17-7.65,3.04-14.82,7.48-21.77,11.97-2.72,1.75-4.67,5.17-6.08,8.24-.64,1.38.9,3.76,1.45,5.69,1.42-.45,2.96-.67,4.22-1.39,2.88-1.65,5.55-3.67,8.44-5.31,24.62-13.93,51.62-22.18,77.83-32.26,40.37-15.53,81.05-30.27,121.6-45.34,14.47-5.38,29.31-8.8,44.96-9.4ZM109.19,231.72c4.87-3.32,9.06-7.12,13.96-9.37,22.5-10.33,44.99-20.74,67.88-30.18,44.6-18.39,89.36-36.4,134.25-54.06,27.16-10.68,54.52-11.01,81.57,1.15,22.46,10.09,45.05,19.9,67.48,30.05,39.71,17.97,79.48,35.82,118.97,54.28,34.64,16.19,70.14,30.7,102.61,51.23,1.94,1.22,4.31,2.34,5.43-.44.79-1.96,1.2-5.52.1-6.54-3.97-3.67-8.34-7.18-13.13-9.63-13.16-6.75-26.57-13.05-39.96-19.34-45.63-21.44-91.22-42.95-136.97-64.13-30.79-14.25-62.21-27.19-92.63-42.18-33.36-16.43-66.23-18-100.6-3.55-43.55,18.32-87.59,35.46-131.33,53.33-20.79,8.5-41.52,17.15-61.92,26.53-6.12,2.82-11.3,8.02-16.33,12.74-3.01,2.83-3.5,6.77.63,10.1ZM108.92,172.96c7.67-4.76,14.66-9.96,22.36-13.72,17.93-8.76,36.07-17.12,54.36-25.11,45.87-20.05,91.84-39.9,137.84-59.65,28.41-12.2,56.89-12.7,85.01,1.01,46.05,22.46,92.11,44.92,138.02,67.66,50.39,24.96,100.94,49.63,148.9,79.17,1.95,1.2,3.93,2.76,6.01-.02,1.95-2.61,1.8-5.04-.54-7.08-2.11-1.84-4.42-3.55-6.86-4.92-9.43-5.29-18.86-10.59-28.46-15.57-52.72-27.34-105.4-54.77-158.28-81.79-29.63-15.14-59.9-29.02-89.38-44.41-30.97-16.16-62.13-19.45-94.56-5.3-41.62,18.16-83.32,36.16-124.9,54.41-25.13,11.03-50.2,22.22-75.09,33.78-5.14,2.39-9.73,6.35-13.92,10.29-3.93,3.69-3.62,7.25-.48,11.26Z"/>
      <path d="M231.14,836.18c-50.14-3.8-100.27-7.6-150.41-11.4l.09-1.18c50.13,3.91,100.25,7.82,150.38,11.73-.02.28-.04.56-.06.84Z"/>
      <path d="M402.41,842.52c-1.16.46-2.3,1.25-3.49,1.33-25.24,1.72-50.47,1.6-75.69-.59-15.55-1.35-31.14-2.23-46.66-4.14,6.62.41,13.24.85,19.86,1.23,21.73,1.25,43.46,2.93,65.21,3.55,13.59.39,27.23-.84,40.84-1.35l-.07-.03Z"/>
      <path d="M402.47,842.55c36.41-2.52,72.82-5.03,109.23-7.55.02.3.04.59.06.89-22.86,1.66-45.73,3.36-68.59,4.97-11.6.82-23.21,1.54-34.83,2.2-1.95.11-3.94-.33-5.92-.53-.02-.01.05.02.05.02Z"/>
      <path d="M663.49,824.22v-8.84c.44,7.81.43,7.64,7.81,7.14,17.25-1.17,34.52-2.14,51.78-3.23,6.28-.4,12.55-.88,18.87-.46-26.1,1.79-52.19,3.59-78.47,5.4Z"/>
      <path d="M656.49,824.93c-19.47,1.47-38.94,2.95-58.41,4.42l-.09-1.26c19.44-1.31,38.89-2.63,58.33-3.94.06.26.11.52.17.78Z"/>
      <path d="M567.25,830.59c-3.82.6-7.62,1.43-11.47,1.75-9.57.8-19.16,1.36-28.8,1.22,13.44-.99,26.87-1.97,40.31-2.96h-.05Z"/>
      <path d="M236.52,835.96c10.75.76,21.5,1.52,32.25,2.28-.02.31-.04.62-.06.92-10.67-.84-21.34-1.68-32.01-2.51l-.18-.69Z"/>
      <path d="M186.49,823.66v-17.6s.78-.02,1-.02v17.58c-.22.02-1,.05-1,.05Z"/>
      <path d="M5.58,817.87c10.9.91,21.8,1.82,32.69,2.72-.01.17-.02.34-.03.51-10.89-.8-21.79-1.59-32.68-2.39,0-.28.01-.56.02-.85Z"/>
      <path d="M471.68,794.56c8.05.67,16.1,1.33,24.15,2-.01.23-.02.45-.03.68-7.63-.42-15.26-.81-22.89-1.31-.42-.03-.79-.91-1.18-1.39l-.05.02Z"/>
      <path d="M567.3,830.6c4.27-.4,8.53-.96,12.81-1.16,4.25-.2,8.51-.04,12.77-.04v1.21c-8.52,0-17.06,0-25.61,0-.01,0,.03,0,.03,0Z"/>
      <path d="M612.33,806.17c6.26.42,12.52.84,18.78,1.25,0,.13,0,.26,0,.38-3.02,0-6.05.15-9.06-.04-3.3-.21-6.58-.75-9.87-1.15l.15-.45Z"/>
      <path d="M471.73,794.66h-24.06c.02-.57.05-1.14.07-1.72,7.97.59,15.93,1.18,23.92,1.75.02-.01.07-.03.07-.03Z"/>
      <path d="M212.05,798.69c-6.19.54-12.38,1.07-18.57,1.61-.02-.27-.05-.54-.07-.81,6.23-.56,12.46-1.13,18.69-1.69-.02.3-.03.6-.05.89Z"/>
      <path d="M282.49,597.66h-1v29h1v-29Z"/>
      <rect class="cls-1" x="281.49" y="597.66" width="1" height="29"/>
    </g>
  </g>
  <g id="flor_1">
    <path class="cls-2" d="M703.36,212.38c0-7.8-.51-16.33.15-24.76.64-8.16-2.74-13.03-9.51-16.94-44.64-25.85-88.71-52.74-133.87-77.63-50.85-28.03-102.65-54.33-154.05-81.37-25.31-13.32-51.47-13.5-77.13-2.39-34.19,14.8-67.74,31.11-101.61,46.66-34.63,15.9-69.38,31.54-103.93,47.6-8.82,4.1-16.91,10.44-18.01,20.6-1.29,11.95-.3,24.15-.3,35.22"/>
    <path class="cls-2" d="M700.3,215.23c-2.11-1.84-4.42-3.55-6.86-4.92-9.43-5.29-18.86-10.59-28.46-15.57-52.72-27.34-105.4-54.77-158.28-81.79-29.63-15.14-59.9-29.02-89.38-44.41-30.97-16.16-62.13-19.45-94.56-5.3-41.62,18.16-83.32,36.16-124.9,54.41-25.13,11.03-50.2,22.22-75.09,33.78-5.14,2.39-9.73,6.35-13.92,10.29-3.93,3.69-3.62,7.25-.48,11.26,7.67-4.76,14.66-9.96,22.36-13.72,17.93-8.76,36.07-17.12,54.36-25.11,45.87-20.05,91.84-39.9,137.84-59.65,28.41-12.2,56.89-12.7,85.01,1.01,46.05,22.46,92.11,44.92,138.02,67.66,50.39,24.96,100.94,49.63,148.9,79.17,1.95,1.2,3.93,2.76,6.01-.02,1.95-2.61,1.8-5.04-.54-7.08"/>
    <path class="cls-2" d="M470.24,795.22c-7.97-.59-15.93-1.18-23.9-1.76-.02.57-.05,1.14-.07,1.72h24.06c.39.48.76,1.36,1.18,1.39,7.62.5,15.26.89,22.89,1.31.01-.23.02-.45.03-.68-8.05-.67-16.1-1.33-24.19-1.97Z"/>
    <path class="cls-2" d="M525.58,834.13c9.64.15,19.23-.42,28.8-1.22,3.84-.32,7.64-1.15,11.49-1.74h25.61v-1.21c-4.27,0-8.53-.16-12.78.04-4.28.2-8.54.76-12.81,1.16-13.44.99-26.87,1.97-40.31,2.96"/>
    <path class="cls-2" d="M662.09,824.73c26.27-1.81,52.37-3.6,78.47-5.4-6.33-.42-12.6.07-18.87.46-17.26,1.09-34.52,2.06-51.78,3.23-7.39.5-7.37.67-7.81-7.14v8.84Z"/>
    <path class="cls-2" d="M655.09,825.44c-.06-.26-.11-.52-.17-.78-19.44,1.31-38.89,2.63-58.33,3.94l.09,1.26c19.47-1.47,38.94-2.95,58.41-4.42Z"/>
    <path class="cls-2" d="M186.09,824.12v-17.58s-.45.02-1,.02v17.6"/>
    <path class="cls-2" d="M610.93,806.68l-.15.45c3.29.4,6.57.93,9.87,1.15,3.01.19,6.04.04,9.06.04,0-.13,0-.26,0-.38-6.26-.42-12.52-.84-18.78-1.25Z"/>
    <path class="cls-2" d="M210.64,799.2c.02-.3.03-.6.05-.89-6.23.56-12.46,1.13-18.69,1.69.02.27.05.54.07.81,6.19-.54,12.38-1.07,18.57-1.61Z"/>
    <path class="cls-2" d="M592.07,742.78c-20.15-2.91-40.26-6.11-60.39-9.18-.29-.04-.62.16-1.59.42v89.89c-.42,0-.83.01-1.25.02,0-5.87-.25-11.75.08-17.59.25-4.5-1.02-6.84-6.04-6.12,3.31-.07,5.98-.09,5.93-4.7-.22-19.21-.1-38.43-.13-57.64,0-.64-.23-1.28-.46-2.43-28.43-4.2-56.88-8.4-86.13-12.72v94.65c-.46,0-.91,0-1.37.01,0-5.48-.01-10.95,0-16.43q.02-7.2-7.22-7.89c2.25-.52,5.46-.34,6.33-1.68,1.17-1.8.66-4.78.67-7.26.03-18.79-.06-37.58.08-56.37.03-3.48-.9-4.92-4.53-5.43-42.24-5.95-84.54-9.45-127.16-3.2-7.78,1.14-15.63,1.73-23.46,2.48-3.95.38-4.06,2.56-4.05,5.6.08,20.29.19,40.58,0,60.86-.04,4.4,1.71,4.86,5.37,4.51,8.89-.85,17.82-1.37,26.78-1.29-9.25.77-18.49,1.69-27.75,2.22-3.4.2-4.72,1.32-4.64,4.76.17,7.4.05,14.81-1.04,22.27v-26.42c-17.31,1.29-33.73,2.51-50.15,3.73-.02-.34-.05-.68-.07-1.02,14.65-1.08,29.29-2.37,43.96-3.11,4.79-.24,6.14-1.86,6.09-6.53-.19-18.97,0-37.94.04-56.92,0-2.31,0-4.61,0-7.9-6.39.8-12.23,1.46-18.05,2.26-23.7,3.26-47.38,6.62-71.1,9.78-3.03.4-4.29,1.25-4.26,4.54.14,18.97.06,37.94.1,56.92,0,1.93.33,3.85.5,5.72-10.99.7-21.68,1.39-32.36,2.07-.02-.28-.04-.56-.06-.83,8.81-.67,17.62-1.43,26.44-1.94,2.67-.15,3.99-.93,3.98-3.75-.04-19.8-.01-39.61-.03-59.41,0-.63-.27-1.25-.58-2.59-26.5,3.73-52.89,7.44-79.45,11.18v60.38c2.49.18,4.67.33,7.13.5q-7.78,1.11-9.13,13.16c0-12.06,0-24.11,0-36.17s0-24.53,0-37.35c-7.51,1.01-14.45,1.96-21.41,2.89-15.33,2.03-30.64,4.19-46,5.97-3.83.44-4.82,1.85-4.77,5.33.22,15.49.21,30.97.27,46.46,0,1.89,0,3.78,0,5.66-.53,0,1.41,0,.9,0v-55.94c-7,0-13.36-.05-19.72,0s-11.99-5.32-11.87-11.97"/>
    <path class="cls-2" d="M747.47,753.6c.99,6.76-.41,9.44-5.43,9.46-8.13.03-16.26.06-24.39.09-1.97,0-3.93,0-6.56,0v49.35c-.51.04-1.02.08-1.53.12-.11-1.6-.31-3.21-.31-4.81-.01-13.66-.12-27.32.1-40.97.07-4.01-1.12-5.63-5.18-5.8-4.2-.17-8.36-1.09-13.08-1.76v51.89c-.3,0-1.31,0-1.61,0,0-15.57-.22-31.15.12-46.72.12-5.4-1.26-7.64-6.7-7.86-5.42-.22-10.82-1.45-16.19-2.49-3.36-.65-5.15.35-5.12,4.03.14,16.47.23,32.94.59,49.41.02,1.1,2.06,2.85,3.37,3.1,3.87.75,7.85.91,11.76,1.85-5.45-.26-10.89-.53-16.51-.8,0-7.42-.03-15.02,0-22.62.06-10.3.16-20.59.27-30.89.03-2.75-.16-4.91-3.67-5.43-19.5-2.85-38.96-5.9-58.44-8.87"/>
    <path class="cls-2" d="M603.84,729.74c28.73,4.59,57.46,9.23,86.17,14.02,18.18,3.03,36.3,6.38,54.45,9.59,1.42-9.1.58-19.21-1.99-21.13,3.62-4.93,2.39-7.88-4.23-9.39-17.19-3.9-34.4-7.78-51.67-11.28-30.31-6.14-60.69-11.94-91.03-17.96-28.05-5.56-56.06-11.32-84.13-16.81-30.83-6.03-61.73-11.66-92.54-17.81-33.62-6.7-67.33-8.36-101.18-2.36"/>
    <path class="cls-2" d="M317.69,656.61c-46.17,8.18-92.33,16.47-138.44,25-44.32,8.2-88.58,16.74-132.86,25.19-13.06,2.49-26.09,5.18-39.13,7.8-3.02.61-5.13,2.57-4.35,5.57.52,1.99,2.39,4.34,4.25,5.11,3.08,1.28,6.63,1.42,9.98,2.04-.03.23-.07.46-.1.7-4.53-.44-9.07-.89-13.95-1.37v18.9c1.07,0,1.74.09,2.37-.01,17.57-2.76,35.14-5.55,52.71-8.32,43.05-6.78,86.07-13.73,129.15-20.29,34.86-5.3,69.81-10.06,104.7-15.19,26.37-3.88,52.77-7.03,79.53-6.25,27.23.79,53.88,5.87,80.65,10.12,50.55,8.03,101.1,16.03,151.64,24.11"/>
    <path class="cls-2" d="M3.47,713.45c1.57,0,2.57.16,3.49-.02,16.13-3.28,32.23-6.7,48.37-9.9,43.56-8.64,87.09-17.41,130.72-25.71,34.78-6.61,69.61-13.11,104.57-18.68,22.63-3.61,45.48-6.38,68.34-7.85,28.12-1.8,55.58,4.89,83.06,9.78,30.61,5.45,61.08,11.72,91.58,17.78,40.63,8.07,81.25,16.19,121.84,24.46,29.8,6.07,59.54,12.43,89.86,18.78"/>
    <path class="cls-2" d="M583.82,728.7c-55.5-8.99-111.07-17.54-166.56-26.54-31.26-5.07-62.61-6.48-93.99-2.33-37.93,5.02-75.78,10.57-113.62,16.27-50.67,7.63-101.29,15.57-151.92,23.48-16.26,2.54-32.48,5.35-48.7,8.14-2.24.39-5.52.03-5.14,3.9.4,4,3.78,2.72,5.87,2.66,9.46-.25,18.97-.3,28.34-1.44,23.56-2.88,47.05-6.28,70.57-9.53,28.39-3.92,56.77-7.96,85.17-11.82,27.04-3.68,54.09-7.26,81.16-10.69,3.57-.45,5.55-1.66,5.75-5.31.01-.2.33-.37.44-.49.29,1.37.59,2.76.96,4.5,52.82-8.23,105.34-7.24,157.97.42.39-2.25.66-3.78.93-5.31.11,5.64,3.8,6.51,8.31,6.99,8.1.87,16.17,2.06,24.23,3.26,65.62,9.76,131.2,19.78,196.87,29.21,21.36,3.07,42.93,4.77,64.44,6.72,3.08.28,6.35-1.51,9.54-2.34-1.34-4.75-5.8-4-9.01-4.55-50.51-8.54-101.03-17.02-151.6-25.21"/>
    <path class="cls-2" d="M662.09,824.73v-8.84c.44,7.81.43,7.64,7.81,7.14,17.25-1.17,34.52-2.14,51.78-3.23,6.28-.4,12.55-.88,18.87-.46-26.1,1.79-52.19,3.59-78.47,5.4Z"/>
    <path class="cls-2" d="M655.09,825.44c-19.47,1.47-38.94,2.95-58.41,4.42l-.09-1.26c19.44-1.31,38.89-2.63,58.33-3.94.06.26.11.52.17.78Z"/>
    <path class="cls-2" d="M525.58,834.07c13.44-.99,26.87-1.97,40.31-2.96h-.05c-3.82.59-7.62,1.42-11.47,1.74-9.57.8-19.16,1.36-28.8,1.22"/>
    <path class="cls-2" d="M185.09,824.17v-17.6s.78-.02,1-.02v17.58"/>
    <path class="cls-2" d="M470.28,795.07c8.05.67,16.1,1.33,24.15,2-.01.23-.02.45-.03.68-7.63-.42-15.26-.81-22.89-1.31-.42-.03-.79-.91-1.18-1.39l-.05.02Z"/>
    <path class="cls-2" d="M565.89,831.11c4.27-.4,8.53-.96,12.81-1.16,4.25-.2,8.51-.04,12.77-.04v1.21c-8.52,0-17.06,0-25.61,0-.01,0,.03,0,.03,0Z"/>
    <path class="cls-2" d="M610.93,806.68c6.26.42,12.52.84,18.78,1.25,0,.13,0,.26,0,.38-3.02,0-6.05.15-9.06-.04-3.3-.21-6.58-.75-9.87-1.15l.15-.45Z"/>
    <path class="cls-2" d="M470.33,795.17h-24.06c.02-.57.05-1.14.07-1.72,7.97.59,15.93,1.18,23.92,1.75.02-.01.07-.03.07-.03Z"/>
    <path class="cls-2" d="M210.64,799.2c-6.19.54-12.38,1.07-18.57,1.61-.02-.27-.05-.54-.07-.81,6.23-.56,12.46-1.13,18.69-1.69-.02.3-.03.6-.05.89Z"/>
    <g>
      <path class="cls-2" d="M87.89,825.93c50.14,3.8,100.27,7.6,150.41,11.4.02-.28.04-.56.06-.84-50.13-3.91-100.25-7.82-150.38-11.73"/>
      <path class="cls-2" d="M275.93,839.39c-10.75-.76-21.5-1.52-32.25-2.28l.18.69c10.67.84,21.34,1.68,32.01,2.51"/>
      <path class="cls-2" d="M238.35,836.49c-.02.28-.04.56-.06.84-50.14-3.8-100.27-7.6-150.41-11.4"/>
      <path class="cls-2" d="M87.89,825.93l.09-1.18c50.13,3.91,100.25,7.82,150.38,11.73"/>
      <path class="cls-2" d="M409.63,843.7l-.07-.03c-1.16.46-2.3,1.25-3.49,1.33-25.24,1.72-50.47,1.6-75.69-.59-15.55-1.35-31.14-2.23-46.66-4.14,6.62.41,13.24.85,19.86,1.23,21.73,1.25,43.46,2.93,65.21,3.55,13.59.39,27.23-.84,40.84-1.35"/>
      <path class="cls-2" d="M518.93,837.04c-22.86,1.66-45.73,3.36-68.59,4.97-11.6.82-23.21,1.54-34.83,2.2-1.95.11-3.94-.33-5.92-.53"/>
      <path class="cls-2" d="M409.63,843.7c36.41-2.52,72.82-5.03,109.23-7.55.02.3.04.59.06.89"/>
      <path class="cls-2" d="M243.86,837.8l-.18-.69c10.75.76,21.5,1.52,32.25,2.28-.02.31-.04.62-.06.92"/>
      <path class="cls-2" d="M12.72,819.87c0-.28.01-.56.02-.85,10.9.91,21.8,1.82,32.69,2.72-.01.17-.02.34-.03.51"/>
    </g>
  </g>
</svg>