<svg xmlns="http://www.w3.org/2000/svg" viewBox="0 0 900 600" fill="none">
  <rect width="900" height="600" fill="#F4F1ED"/>

  <g stroke="#D4CEC7" stroke-width="2">
    <path d="M60 80H860"/>
    <path d="M60 140H860"/>
    <path d="M60 200H860"/>
    <path d="M60 260H860"/>
    <path d="M60 320H860"/>
    <path d="M60 380H860"/>
    <path d="M60 440H860"/>
    <path d="M60 500H860"/>
    <path d="M120 40V560"/>
    <path d="M220 40V560"/>
    <path d="M320 40V560"/>
    <path d="M420 40V560"/>
    <path d="M520 40V560"/>
    <path d="M620 40V560"/>
    <path d="M720 40V560"/>
    <path d="M820 40V560"/>
  </g>

  <g stroke="#B89050" stroke-width="7" stroke-linecap="round">
    <path d="M90 520L820 100"/>
  </g>

  <g stroke="#A9A29A" stroke-width="3" opacity="0.7">
    <path d="M160 90L740 560"/>
    <path d="M220 520L820 240"/>
  </g>

  <g fill="#B89050">
    <circle cx="520" cy="310" r="8"/>
    <circle cx="360" cy="390" r="6" opacity="0.6"/>
    <circle cx="650" cy="200" r="6" opacity="0.6"/>
  </g>
</svg>
